<svg width="32" height="32" viewBox="0 0 32 32" fill="none" xmlns="http://www.w3.org/2000/svg">
<path fill-rule="evenodd" clip-rule="evenodd" d="M5.33268 5.33325H26.666C28.1388 5.33325 29.3327 6.52716 29.3327 7.99992V23.9999C29.3327 25.4727 28.1388 26.6666 26.666 26.6666H5.33268C3.85992 26.6666 2.66602 25.4727 2.66602 23.9999V7.99992C2.66602 6.52716 3.85992 5.33325 5.33268 5.33325Z" fill="url(#paint0_linear)"/>
<path fill-rule="evenodd" clip-rule="evenodd" d="M24.6673 14.6667H7.33398C6.22941 14.6667 5.33398 15.5622 5.33398 16.6667V17.3334H11.4484C11.802 17.3334 12.1411 17.4739 12.3912 17.7239L13.7245 19.0573C14.3282 19.6609 15.1469 20.0001 16.0007 20.0001C16.8544 20.0001 17.6731 19.6609 18.2768 19.0573L19.6101 17.7239C19.8602 17.4739 20.1993 17.3334 20.5529 17.3334H26.6673V16.6667C26.6673 15.5622 25.7719 14.6667 24.6673 14.6667Z" fill="url(#paint1_linear)"/>
<path fill-rule="evenodd" clip-rule="evenodd" d="M7.33398 8C6.22941 8 5.33398 8.89543 5.33398 10V10.6667H26.6673V10C26.6673 8.89543 25.7719 8 24.6673 8H7.33398Z" fill="url(#paint2_linear)"/>
<defs>
<linearGradient id="paint0_linear" x1="33.0509" y1="26.6546" x2="-1.90773" y2="-0.104537" gradientUnits="userSpaceOnUse">
<stop stop-color="#CD7BFE"/>
<stop offset="1" stop-color="#FFE9A5"/>
</linearGradient>
<linearGradient id="paint1_linear" x1="29.6419" y1="19.9971" x2="23.3055" y2="4.47649" gradientUnits="userSpaceOnUse">
<stop stop-color="#E9C5FF"/>
<stop offset="1" stop-color="#FFF8E0"/>
</linearGradient>
<linearGradient id="paint2_linear" x1="29.6419" y1="10.6652" x2="27.8677" y2="1.9736" gradientUnits="userSpaceOnUse">
<stop stop-color="#E9C5FF"/>
<stop offset="1" stop-color="#FFF8E0"/>
</linearGradient>
</defs>
</svg>
