<svg width="505" height="113" viewBox="0 0 505 113" fill="none" xmlns="http://www.w3.org/2000/svg">
<mask id="mask0" mask-type="alpha" maskUnits="userSpaceOnUse" x="0" y="0" width="505" height="113">
<path d="M0 7.99999C0 3.58171 3.58172 0 8 0H497C501.418 0 505 3.58172 505 8V104.496C505 109.106 501.113 112.762 496.512 112.481L7.51157 82.5702C3.29086 82.312 0 78.8137 0 74.5851V7.99999Z" fill="#532D94"/>
</mask>
<g mask="url(#mask0)">
<path d="M0 7.99999C0 3.58171 3.58172 0 8 0H497C501.418 0 505 3.58172 505 8V104.496C505 109.106 501.113 112.762 496.512 112.481L7.51157 82.5702C3.29086 82.312 0 78.8137 0 74.5851V7.99999Z" fill="#532D94"/>
<path d="M468.458 93.8596C503.138 93.8596 534.325 63.8926 534.325 29.0181C534.325 -5.8564 503.138 -40 468.458 -40C433.777 -40 402 -0.152317 402 34.4477C402 69.0476 433.777 93.8596 468.458 93.8596Z" fill="url(#paint0_linear)" fill-opacity="0.04"/>
<path d="M525.278 32.2417C525.278 67.0898 494.114 97.0372 459.458 97.0372C424.796 97.0372 393.046 72.2394 393.046 37.6713C393.046 20.3844 400.985 1.78279 413.259 -12.4975C425.532 -26.778 442.135 -36.7303 459.458 -36.7303C476.783 -36.7303 493.238 -28.2017 505.363 -15.3137C517.488 -2.42571 525.278 14.8179 525.278 32.2417Z" stroke="#AAB6FF" stroke-opacity="0.6" stroke-width="0.0921052"/>
<path d="M387.458 168.86C422.138 168.86 453.325 138.893 453.325 104.018C453.325 69.1436 422.138 35 387.458 35C352.777 35 321 74.8477 321 109.448C321 144.048 352.777 168.86 387.458 168.86Z" fill="url(#paint1_linear)" fill-opacity="0.04"/>
<path d="M444.278 107.242C444.278 142.09 413.114 172.037 378.458 172.037C343.796 172.037 312.046 147.239 312.046 112.671C312.046 95.3844 319.985 76.7828 332.259 62.5025C344.532 48.222 361.135 38.2697 378.458 38.2697C395.783 38.2697 412.238 46.7983 424.363 59.6863C436.488 72.5743 444.278 89.8179 444.278 107.242Z" stroke="#AAB6FF" stroke-opacity="0.5" stroke-width="0.0921052"/>
<path d="M446.813 36.4531C446.757 36.5091 446.714 36.5766 446.679 36.6506L446.675 36.6466L441.067 49.2793L441.072 49.2848C440.968 49.4863 441.142 49.8963 441.499 50.2532C441.855 50.6097 442.265 50.7837 442.467 50.6797L442.472 50.6847L455.104 45.0764L455.1 45.0719C455.174 45.0369 455.241 44.9944 455.298 44.9374C456.079 44.1564 454.812 41.624 452.47 39.281C450.127 36.9381 447.594 35.6721 446.813 36.4531Z" fill="#DD2E44"/>
<path d="M447.5 38.7094L441.208 48.9621L441.067 49.2796L441.072 49.2851C440.968 49.4866 441.142 49.8965 441.499 50.2535C441.615 50.3695 441.735 50.4575 441.853 50.532L449.5 41.2093L447.5 38.7094Z" fill="#EA596E"/>
<path d="M452.505 39.2424C454.84 41.5783 456.137 44.0683 455.4 44.8043C454.663 45.5412 452.173 44.2453 449.837 41.9103C447.501 39.5744 446.205 37.0835 446.942 36.347C447.679 35.6105 450.169 36.9065 452.505 39.2424Z" fill="#A0041E"/>
<path d="M450.294 39.5138C450.195 39.5943 450.065 39.6363 449.927 39.6213C449.493 39.5743 449.128 39.4233 448.873 39.1848C448.602 38.9323 448.469 38.5933 448.505 38.2539C448.569 37.6579 449.167 37.1109 450.187 37.2209C450.583 37.2634 450.76 37.1359 450.766 37.0749C450.773 37.0144 450.628 36.8519 450.231 36.8089C449.797 36.7619 449.432 36.6109 449.176 36.3724C448.906 36.1199 448.772 35.7809 448.809 35.4414C448.874 34.8454 449.471 34.2985 450.49 34.409C450.779 34.44 450.931 34.3805 450.996 34.342C451.047 34.3105 451.068 34.2805 451.07 34.263C451.076 34.2025 450.932 34.04 450.535 33.997C450.26 33.967 450.061 33.721 450.092 33.446C450.121 33.1715 450.367 32.973 450.642 33.003C451.661 33.1125 452.129 33.774 452.064 34.3705C451.999 34.9674 451.402 35.5134 450.382 35.4039C450.093 35.3724 449.942 35.4324 449.877 35.4709C449.826 35.5019 449.805 35.5324 449.803 35.5494C449.796 35.6104 449.941 35.7724 450.338 35.8154C451.357 35.9254 451.825 36.5864 451.76 37.1829C451.696 37.7789 451.098 38.3259 450.079 38.2154C449.79 38.1844 449.638 38.2444 449.573 38.2824C449.521 38.3144 449.501 38.3444 449.499 38.3614C449.493 38.4218 449.637 38.5843 450.034 38.6273C450.308 38.6573 450.508 38.9038 450.477 39.1783C450.463 39.3153 450.394 39.4338 450.294 39.5138Z" fill="#AA8DD8"/>
<path d="M456.33 44.1377C457.317 43.8592 457.997 44.2992 458.159 44.8766C458.321 45.4536 457.97 46.1841 456.984 46.4616C456.599 46.5696 456.484 46.7536 456.499 46.8121C456.516 46.8711 456.712 46.9681 457.096 46.8596C458.082 46.5821 458.762 47.0221 458.924 47.5991C459.087 48.1766 458.735 48.906 457.749 49.184C457.364 49.292 457.248 49.4765 457.265 49.535C457.282 49.5935 457.477 49.6905 457.861 49.5825C458.126 49.508 458.403 49.6625 458.478 49.928C458.552 50.194 458.397 50.47 458.131 50.545C457.146 50.8225 456.465 50.3835 456.302 49.8055C456.14 49.2285 456.491 48.499 457.478 48.221C457.863 48.1126 457.979 47.9291 457.962 47.8701C457.946 47.8116 457.751 47.7141 457.367 47.8221C456.38 48.1001 455.7 47.6611 455.537 47.0826C455.375 46.5056 455.726 45.7761 456.713 45.4976C457.097 45.3901 457.212 45.2051 457.196 45.1471C457.179 45.0881 456.985 44.9911 456.6 45.0991C456.334 45.1741 456.059 45.0191 455.984 44.7536C455.909 44.4887 456.064 44.2127 456.33 44.1377Z" fill="#77B255"/>
<path d="M452.5 42.7894C452.353 42.7894 452.208 42.7249 452.109 42.6019C451.937 42.3859 451.972 42.0714 452.187 41.899C452.296 41.8115 454.896 39.7695 458.571 40.295C458.844 40.334 459.034 40.587 458.995 40.8605C458.956 41.1335 458.705 41.3255 458.429 41.2845C455.183 40.8235 452.836 42.6614 452.813 42.6799C452.72 42.7539 452.61 42.7894 452.5 42.7894Z" fill="#AA8DD8"/>
<path d="M443.877 40.7094C443.829 40.7094 443.781 40.7024 443.733 40.6884C443.468 40.6089 443.318 40.3304 443.398 40.0659C443.964 38.1794 444.478 35.169 443.847 34.384C443.776 34.295 443.67 34.2076 443.426 34.2261C442.957 34.2621 443.001 35.2515 443.002 35.2615C443.023 35.537 442.816 35.777 442.541 35.7975C442.261 35.8145 442.025 35.6115 442.005 35.336C441.953 34.6465 442.168 33.3186 443.351 33.2291C443.879 33.1891 444.317 33.3726 444.627 33.7576C445.812 35.233 444.609 39.5104 444.356 40.3534C444.291 40.5699 444.092 40.7094 443.877 40.7094Z" fill="#77B255"/>
<path d="M453.749 38.2094C454.164 38.2094 454.499 37.8736 454.499 37.4594C454.499 37.0452 454.164 36.7094 453.749 36.7094C453.335 36.7094 453 37.0452 453 37.4594C453 37.8736 453.335 38.2094 453.749 38.2094Z" fill="#5C913B"/>
<path d="M442 42.7092C442.552 42.7092 443 42.2615 443 41.7092C443 41.1569 442.552 40.7092 442 40.7092C441.448 40.7092 441 41.1569 441 41.7092C441 42.2615 441.448 42.7092 442 42.7092Z" fill="#9266CC"/>
<path d="M457.249 43.2092C457.663 43.2092 457.999 42.8734 457.999 42.4592C457.999 42.045 457.663 41.7092 457.249 41.7092C456.835 41.7092 456.499 42.045 456.499 42.4592C456.499 42.8734 456.835 43.2092 457.249 43.2092Z" fill="#5C913B"/>
<path d="M452.75 49.2089C453.164 49.2089 453.5 48.8732 453.5 48.459C453.5 48.0448 453.164 47.709 452.75 47.709C452.336 47.709 452 48.0448 452 48.459C452 48.8732 452.336 49.2089 452.75 49.2089Z" fill="#5C913B"/>
<path d="M455 35.7095C455.552 35.7095 456 35.2618 456 34.7095C456 34.1572 455.552 33.7095 455 33.7095C454.448 33.7095 454 34.1572 454 34.7095C454 35.2618 454.448 35.7095 455 35.7095Z" fill="#FFCC4D"/>
<path d="M457.249 37.7092C457.663 37.7092 457.999 37.3734 457.999 36.9592C457.999 36.545 457.663 36.2092 457.249 36.2092C456.835 36.2092 456.499 36.545 456.499 36.9592C456.499 37.3734 456.835 37.7092 457.249 37.7092Z" fill="#FFCC4D"/>
<path d="M455.749 39.7091C456.164 39.7091 456.499 39.3733 456.499 38.9591C456.499 38.5449 456.164 38.2092 455.749 38.2092C455.335 38.2092 455 38.5449 455 38.9591C455 39.3733 455.335 39.7091 455.749 39.7091Z" fill="#FFCC4D"/>
<path d="M444.75 45.2091C445.165 45.2091 445.5 44.8733 445.5 44.4591C445.5 44.0449 445.165 43.7091 444.75 43.7091C444.336 43.7091 444 44.0449 444 44.4591C444 44.8733 444.336 45.2091 444.75 45.2091Z" fill="#FFCC4D"/>
<path d="M483.049 42.1303C481.738 40.2212 479.028 43.0308 474.083 43.6019C472.252 43.813 470.603 45.3419 468.476 45.1962C467.604 45.1363 466.386 42.6273 465.474 43.0273C465.005 43.2333 464.79 43.9211 465.272 44.4379L470.627 50.8266C470.627 50.8266 470.899 51.1403 471.815 50.923C472.041 50.9895 475.437 49.6286 477.4 46.9043C477.87 46.252 478.431 45.7089 479.011 45.2551C480.895 43.8623 482.942 43.377 482.942 43.377C483.204 43.1608 483.266 42.9308 483.252 42.7313C483.269 42.3983 483.049 42.1303 483.049 42.1303Z" fill="#5C913B"/>
<path d="M470.803 39.0819C468.882 41.7468 465.519 43.0092 465.519 43.0092C464.892 43.5407 465.422 44.1671 465.422 44.1671L470.72 50.4405C470.72 50.4405 470.985 50.7537 471.878 50.5365C471.878 50.5365 475.241 49.2766 477.16 46.6117C479.139 43.8656 482.708 42.9986 482.708 42.9986C483.335 42.4671 482.806 41.8397 482.806 41.8397L477.507 35.5673C477.507 35.5673 477.243 35.2536 476.35 35.4698C476.35 35.4698 472.782 36.3348 470.803 39.0819Z" fill="#A7D28B"/>
<path d="M476.144 43.765C477.686 43.765 478.936 42.515 478.936 40.9731C478.936 39.4313 477.686 38.1813 476.144 38.1813C474.602 38.1813 473.352 39.4313 473.352 40.9731C473.352 42.515 474.602 43.765 476.144 43.765Z" fill="#77B255"/>
<path d="M471.511 50.0744C471.064 50.0744 470.9 49.9079 470.877 49.8825L466.101 44.3075C466.092 44.2969 465.85 44.0197 465.879 43.6674C465.897 43.4537 466.008 43.2634 466.208 43.1015L466.24 43.0822C466.271 43.07 469.368 41.7969 471.104 39.496L471.206 39.5721L471.104 39.496C472.941 37.0615 476.109 36.0169 476.14 36.0067C477.026 35.8006 477.316 36.095 477.347 36.1296L482.06 41.7355C482.068 41.7446 482.31 42.0228 482.281 42.3756C482.263 42.5888 482.152 42.7791 481.952 42.9411L481.902 42.9659C481.871 42.9736 478.791 43.739 477.007 46.1034C475.23 48.4587 472.13 49.9825 472.099 49.9972C471.864 50.0531 471.67 50.0744 471.511 50.0744ZM471.069 49.7155C471.069 49.7155 471.298 49.9267 472.015 49.7602C472.019 49.7546 475.066 48.2567 476.805 45.9511C478.55 43.639 481.488 42.8131 481.814 42.7274C481.944 42.6152 482.016 42.4908 482.028 42.3573C482.049 42.1137 481.869 41.904 481.868 41.902L477.155 36.2955C477.154 36.2955 476.926 36.0849 476.209 36.2514C476.188 36.2585 473.094 37.2798 471.307 39.6488C469.599 41.9132 466.617 43.1994 466.354 43.3101C466.218 43.4243 466.144 43.5517 466.132 43.6883C466.112 43.9299 466.291 44.1385 466.292 44.1405L471.069 49.7155Z" fill="#5C913B"/>
<path d="M475.776 45.1186L475.773 48.1338L476.025 48.4333C476.517 47.9845 476.99 47.48 477.398 46.9125C477.822 46.3247 478.315 45.8217 478.834 45.3968L478.589 45.1049L475.776 45.1186Z" fill="#FFAC33"/>
<path d="M478.58 45.0945L472.232 37.5754C471.717 37.9997 471.221 38.4946 470.8 39.0799C470.388 39.6515 469.909 40.1545 469.412 40.5981L470.154 41.4768L470.153 41.4773L475.775 48.134C476.272 47.6899 476.746 47.1817 477.158 46.6097C477.579 46.0249 478.074 45.5305 478.59 45.1062L478.58 45.0945H478.58Z" fill="#FFE8B6"/>
<path d="M472.326 45.3158C471.536 44.3797 469.863 45.8985 469.386 45.3335C469.155 45.0599 469.303 44.7051 469.607 44.4493C470.117 44.0178 470.485 44.2691 470.716 44.0737C470.88 43.9356 470.871 43.7666 470.774 43.6503C470.547 43.3828 469.969 43.5224 469.519 43.7823L469.3 43.5234C469.164 43.362 468.922 43.3412 468.761 43.4777C468.599 43.6148 468.579 43.8554 468.715 44.0168L468.942 44.2853C468.598 44.7412 468.481 45.3462 468.888 45.8269C469.647 46.7254 471.341 45.232 471.874 45.8635C472.059 46.0827 472.007 46.501 471.618 46.8289C471.036 47.3218 470.508 47.0908 470.271 47.2908C470.155 47.3878 470.134 47.5726 470.258 47.7193C470.454 47.9512 471.08 47.9015 471.681 47.5269C471.682 47.5279 471.682 47.5289 471.682 47.5299L471.93 47.8223C472.066 47.9837 472.308 48.0035 472.47 47.868C472.632 47.7309 472.651 47.4893 472.515 47.3279L472.268 47.0355C472.265 47.0325 472.261 47.0304 472.258 47.0274C472.664 46.531 472.801 45.8767 472.326 45.3158Z" fill="#5C913B"/>
<path d="M481.451 50.409C481.456 50.405 481.461 50.4019 481.466 50.3984C481.5 50.3639 481.527 50.3243 481.557 50.2862C481.579 50.2598 481.603 50.2344 481.622 50.2075C481.64 50.1821 481.655 50.1563 481.671 50.1304C482.392 49.0202 481.92 47.1381 480.493 45.7107C479.066 44.2833 477.183 43.8112 476.073 44.5325C476.047 44.5483 476.021 44.563 475.996 44.5813C475.969 44.6011 475.943 44.6249 475.917 44.6457C475.88 44.6767 475.84 44.7031 475.805 44.7381C475.801 44.7427 475.798 44.7478 475.794 44.7523C475.789 44.7579 475.782 44.7615 475.776 44.7676L475.779 44.7701C475.271 45.3092 475.265 46.1432 475.776 46.6543C476.287 47.166 477.121 47.1589 477.661 46.6513L477.666 46.6574C477.655 46.6675 477.644 46.6741 477.634 46.6843C477.096 47.2218 477.083 48.0792 477.604 48.6005C478.125 49.1208 478.983 49.1081 479.52 48.5705C479.53 48.5604 479.537 48.5487 479.547 48.538L479.552 48.5441C479.045 49.0832 479.038 49.9172 479.55 50.4288C480.061 50.9395 480.894 50.9334 481.434 50.4258L481.437 50.4288C481.442 50.4217 481.446 50.4151 481.451 50.409Z" fill="#E1E8ED"/>
<path d="M475.777 46.6738C476.236 47.1332 476.955 47.1707 477.487 46.8063C477.71 46.4256 477.774 46.0636 477.774 45.9504C476.654 46.786 475.654 45.955 475.43 45.4581C475.337 45.8875 475.45 46.3464 475.777 46.6738ZM479.481 48.623C479.633 48.4103 479.75 48.2047 479.805 48.0656C479.092 48.7194 477.728 48.2407 477.315 47.2037C477.133 47.6859 477.226 48.2413 477.605 48.6199C478.114 49.1285 478.942 49.1245 479.481 48.623ZM481.438 50.4478L481.453 50.4295C481.458 50.4255 481.463 50.4224 481.467 50.4184C481.502 50.3838 481.529 50.3442 481.559 50.3067C481.58 50.2798 481.604 50.2549 481.624 50.2275C481.642 50.2026 481.657 50.1762 481.673 50.1503C481.706 50.0996 481.724 50.0397 481.751 49.9859C480.468 50.56 479.51 49.5859 479.242 49.1001C479.092 49.5656 479.19 50.0869 479.551 50.4488C480.062 50.96 480.895 50.9539 481.435 50.4458L481.438 50.4478Z" fill="#CCD6DD"/>
<path d="M472.06 40.2109L472.074 40.1998C472.109 40.1652 472.136 40.1257 472.166 40.0881C472.188 40.0617 472.211 40.0368 472.231 40.0094C472.249 39.984 472.264 39.9581 472.28 39.9323C473.001 38.8221 472.528 36.9394 471.101 35.5126C469.674 34.0852 467.792 33.6126 466.682 34.3334C466.656 34.3497 466.629 34.3644 466.604 34.3826C466.577 34.4024 466.552 34.4258 466.525 34.4471C466.488 34.4776 466.448 34.504 466.414 34.539C466.409 34.5436 466.406 34.5491 466.402 34.5532C466.397 34.5583 466.39 34.5628 466.384 34.5684L466.387 34.571C465.879 35.11 465.873 35.944 466.384 36.4552C466.895 36.9663 467.729 36.9602 468.268 36.4526L468.274 36.4582C468.263 36.4679 468.252 36.475 468.242 36.4851C467.704 37.0227 467.691 37.88 468.212 38.4013C468.733 38.9226 469.591 38.9094 470.128 38.3719C470.138 38.3617 470.145 38.3501 470.155 38.3394L470.161 38.345C469.653 38.8841 469.647 39.7181 470.158 40.2292C470.669 40.7404 471.503 40.7343 472.042 40.2262L472.044 40.2292C472.05 40.2236 472.055 40.217 472.06 40.2109Z" fill="#E1E8ED"/>
<path d="M466.385 36.4558C466.845 36.9157 467.563 36.9532 468.096 36.5878C468.318 36.2071 468.382 35.8457 468.382 35.7325C467.262 36.5675 466.262 35.736 466.038 35.2391C465.945 35.669 466.058 36.1284 466.385 36.4558ZM470.091 38.404C470.242 38.1913 470.359 37.9867 470.413 37.8476C469.7 38.5014 468.336 38.0223 467.923 36.9852C467.742 37.4674 467.835 38.0228 468.213 38.4014C468.722 38.9106 469.551 38.906 470.091 38.404ZM472.046 40.2298C472.051 40.2242 472.056 40.2176 472.061 40.2115L472.075 40.2004C472.11 40.1659 472.137 40.1263 472.167 40.0887C472.188 40.0623 472.212 40.0374 472.231 40.01C472.25 39.9846 472.264 39.9588 472.281 39.9329C472.314 39.8821 472.331 39.8217 472.359 39.7679C471.076 40.342 470.118 39.3684 469.85 38.8826C469.7 39.3481 469.798 39.8694 470.159 40.2308C470.67 40.742 471.504 40.7359 472.043 40.2278L472.046 40.2298Z" fill="#CCD6DD"/>
<path d="M78.016 48V43.6L74.176 36.832H76.24L78.96 41.808H79.008L81.712 36.832H83.696L79.824 43.568V48H78.016ZM87.8276 48.192C87.2516 48.192 86.7236 48.0907 86.2436 47.888C85.7743 47.6853 85.3743 47.3973 85.0436 47.024C84.713 46.64 84.457 46.1813 84.2756 45.648C84.0943 45.104 84.0036 44.5013 84.0036 43.84C84.0036 43.1787 84.0943 42.5813 84.2756 42.048C84.457 41.504 84.713 41.0453 85.0436 40.672C85.3743 40.288 85.7743 39.9947 86.2436 39.792C86.7236 39.5893 87.2516 39.488 87.8276 39.488C88.4036 39.488 88.9263 39.5893 89.3956 39.792C89.8756 39.9947 90.281 40.288 90.6116 40.672C90.9423 41.0453 91.1983 41.504 91.3796 42.048C91.561 42.5813 91.6516 43.1787 91.6516 43.84C91.6516 44.5013 91.561 45.104 91.3796 45.648C91.1983 46.1813 90.9423 46.64 90.6116 47.024C90.281 47.3973 89.8756 47.6853 89.3956 47.888C88.9263 48.0907 88.4036 48.192 87.8276 48.192ZM87.8276 46.752C88.425 46.752 88.905 46.5707 89.2676 46.208C89.6303 45.8347 89.8116 45.28 89.8116 44.544V43.136C89.8116 42.4 89.6303 41.8507 89.2676 41.488C88.905 41.1147 88.425 40.928 87.8276 40.928C87.2303 40.928 86.7503 41.1147 86.3876 41.488C86.025 41.8507 85.8436 42.4 85.8436 43.136V44.544C85.8436 45.28 86.025 45.8347 86.3876 46.208C86.7503 46.5707 87.2303 46.752 87.8276 46.752ZM98.9349 46.624H98.8709C98.7962 46.8267 98.6949 47.024 98.5669 47.216C98.4495 47.408 98.2949 47.5787 98.1029 47.728C97.9215 47.8667 97.6975 47.9787 97.4309 48.064C97.1749 48.1493 96.8762 48.192 96.5349 48.192C95.6709 48.192 94.9989 47.9147 94.5189 47.36C94.0495 46.8053 93.8149 46.0107 93.8149 44.976V39.68H95.5589V44.752C95.5589 46.0427 96.0922 46.688 97.1589 46.688C97.3829 46.688 97.6015 46.6613 97.8149 46.608C98.0282 46.544 98.2149 46.4533 98.3749 46.336C98.5455 46.2187 98.6789 46.0693 98.7749 45.888C98.8815 45.7067 98.9349 45.4933 98.9349 45.248V39.68H100.679V48H98.9349V46.624ZM103.476 48V39.68H105.22V41.28H105.3C105.417 40.8533 105.663 40.48 106.036 40.16C106.409 39.84 106.927 39.68 107.588 39.68H108.052V41.36H107.364C106.671 41.36 106.137 41.472 105.764 41.696C105.401 41.92 105.22 42.2507 105.22 42.688V48H103.476ZM113.982 39.68H115.726V41.056H115.806C115.988 40.5547 116.281 40.1707 116.686 39.904C117.102 39.6267 117.588 39.488 118.142 39.488C119.198 39.488 120.014 39.872 120.59 40.64C121.166 41.3973 121.454 42.464 121.454 43.84C121.454 45.216 121.166 46.288 120.59 47.056C120.014 47.8133 119.198 48.192 118.142 48.192C117.588 48.192 117.102 48.0533 116.686 47.776C116.281 47.4987 115.988 47.1147 115.806 46.624H115.726V51.2H113.982V39.68ZM117.614 46.688C118.222 46.688 118.708 46.496 119.07 46.112C119.433 45.7173 119.614 45.2 119.614 44.56V43.12C119.614 42.48 119.433 41.968 119.07 41.584C118.708 41.1893 118.222 40.992 117.614 40.992C117.081 40.992 116.633 41.1253 116.27 41.392C115.908 41.648 115.726 41.9893 115.726 42.416V45.264C115.726 45.6907 115.908 46.0373 116.27 46.304C116.633 46.56 117.081 46.688 117.614 46.688ZM129.847 48C129.388 48 129.036 47.872 128.791 47.616C128.546 47.3493 128.396 47.0133 128.343 46.608H128.263C128.103 47.1307 127.81 47.5253 127.383 47.792C126.956 48.0587 126.439 48.192 125.831 48.192C124.967 48.192 124.3 47.968 123.831 47.52C123.372 47.072 123.143 46.4693 123.143 45.712C123.143 44.88 123.442 44.256 124.039 43.84C124.647 43.424 125.532 43.216 126.695 43.216H128.199V42.512C128.199 42 128.06 41.6053 127.783 41.328C127.506 41.0507 127.074 40.912 126.487 40.912C125.996 40.912 125.596 41.0187 125.287 41.232C124.978 41.4453 124.716 41.7173 124.503 42.048L123.463 41.104C123.74 40.6347 124.13 40.2507 124.631 39.952C125.132 39.6427 125.788 39.488 126.599 39.488C127.676 39.488 128.503 39.7387 129.079 40.24C129.655 40.7413 129.943 41.4613 129.943 42.4V46.576H130.823V48H129.847ZM126.327 46.864C126.871 46.864 127.319 46.7467 127.671 46.512C128.023 46.2667 128.199 45.9413 128.199 45.536V44.336H126.727C125.522 44.336 124.919 44.7093 124.919 45.456V45.744C124.919 46.1173 125.042 46.4 125.287 46.592C125.543 46.7733 125.89 46.864 126.327 46.864ZM137.827 39.68H139.507L136.003 49.648C135.907 49.9253 135.795 50.16 135.667 50.352C135.55 50.5547 135.406 50.7147 135.235 50.832C135.075 50.96 134.878 51.0507 134.643 51.104C134.408 51.168 134.131 51.2 133.811 51.2H132.803V49.776H134.211L134.691 48.368L131.667 39.68H133.411L135.075 44.576L135.555 46.384H135.635L136.163 44.576L137.827 39.68ZM141.242 48V39.68H142.986V41.056H143.066C143.151 40.8427 143.252 40.64 143.37 40.448C143.498 40.256 143.647 40.0907 143.818 39.952C143.999 39.8027 144.207 39.6907 144.442 39.616C144.687 39.5307 144.97 39.488 145.29 39.488C145.855 39.488 146.356 39.6267 146.794 39.904C147.231 40.1813 147.551 40.608 147.754 41.184H147.802C147.951 40.7147 148.239 40.3147 148.666 39.984C149.092 39.6533 149.642 39.488 150.314 39.488C151.146 39.488 151.791 39.7707 152.25 40.336C152.708 40.8907 152.938 41.6853 152.938 42.72V48H151.194V42.928C151.194 42.288 151.071 41.808 150.826 41.488C150.58 41.1573 150.191 40.992 149.658 40.992C149.434 40.992 149.22 41.024 149.018 41.088C148.815 41.1413 148.634 41.2267 148.474 41.344C148.324 41.4613 148.202 41.6107 148.106 41.792C148.01 41.9733 147.962 42.1813 147.962 42.416V48H146.218V42.928C146.218 41.6373 145.711 40.992 144.698 40.992C144.484 40.992 144.271 41.024 144.058 41.088C143.855 41.1413 143.674 41.2267 143.514 41.344C143.354 41.4613 143.226 41.6107 143.13 41.792C143.034 41.9733 142.986 42.1813 142.986 42.416V48H141.242ZM158.915 48.192C158.318 48.192 157.784 48.0907 157.315 47.888C156.846 47.6853 156.446 47.3973 156.115 47.024C155.784 46.64 155.528 46.1813 155.347 45.648C155.176 45.104 155.091 44.5013 155.091 43.84C155.091 43.1787 155.176 42.5813 155.347 42.048C155.528 41.504 155.784 41.0453 156.115 40.672C156.446 40.288 156.846 39.9947 157.315 39.792C157.784 39.5893 158.318 39.488 158.915 39.488C159.523 39.488 160.056 39.5947 160.515 39.808C160.984 40.0213 161.374 40.32 161.683 40.704C161.992 41.0773 162.222 41.5147 162.371 42.016C162.531 42.5173 162.611 43.056 162.611 43.632V44.288H156.899V44.56C156.899 45.2 157.086 45.728 157.459 46.144C157.843 46.5493 158.387 46.752 159.091 46.752C159.603 46.752 160.035 46.64 160.387 46.416C160.739 46.192 161.038 45.888 161.283 45.504L162.307 46.512C161.998 47.024 161.55 47.4347 160.963 47.744C160.376 48.0427 159.694 48.192 158.915 48.192ZM158.915 40.848C158.616 40.848 158.339 40.9013 158.083 41.008C157.838 41.1147 157.624 41.264 157.443 41.456C157.272 41.648 157.139 41.8773 157.043 42.144C156.947 42.4107 156.899 42.704 156.899 43.024V43.136H160.771V42.976C160.771 42.336 160.606 41.824 160.275 41.44C159.944 41.0453 159.491 40.848 158.915 40.848ZM164.842 48V39.68H166.586V41.056H166.666C166.847 40.608 167.119 40.2347 167.482 39.936C167.855 39.6373 168.362 39.488 169.002 39.488C169.855 39.488 170.516 39.7707 170.986 40.336C171.466 40.8907 171.706 41.6853 171.706 42.72V48H169.962V42.944C169.962 41.6427 169.439 40.992 168.394 40.992C168.17 40.992 167.946 41.024 167.722 41.088C167.508 41.1413 167.316 41.2267 167.146 41.344C166.975 41.4613 166.836 41.6107 166.73 41.792C166.634 41.9733 166.586 42.1867 166.586 42.432V48H164.842ZM176.727 48C176.119 48 175.66 47.8453 175.351 47.536C175.042 47.216 174.887 46.768 174.887 46.192V41.104H173.591V39.68H174.295C174.583 39.68 174.78 39.616 174.887 39.488C175.004 39.36 175.063 39.152 175.063 38.864V37.408H176.631V39.68H178.375V41.104H176.631V46.576H178.247V48H176.727ZM184.648 36.16H186.392V41.056H186.472C186.653 40.608 186.925 40.2347 187.288 39.936C187.661 39.6373 188.168 39.488 188.808 39.488C189.661 39.488 190.323 39.7707 190.792 40.336C191.272 40.8907 191.512 41.6853 191.512 42.72V48H189.768V42.928C189.768 41.6373 189.245 40.992 188.2 40.992C187.976 40.992 187.752 41.024 187.528 41.088C187.315 41.1413 187.123 41.2267 186.952 41.344C186.781 41.4613 186.643 41.6107 186.536 41.792C186.44 41.9733 186.392 42.1813 186.392 42.416V48H184.648V36.16ZM200.325 48C199.867 48 199.515 47.872 199.269 47.616C199.024 47.3493 198.875 47.0133 198.821 46.608H198.741C198.581 47.1307 198.288 47.5253 197.861 47.792C197.435 48.0587 196.917 48.192 196.309 48.192C195.445 48.192 194.779 47.968 194.309 47.52C193.851 47.072 193.621 46.4693 193.621 45.712C193.621 44.88 193.92 44.256 194.517 43.84C195.125 43.424 196.011 43.216 197.173 43.216H198.677V42.512C198.677 42 198.539 41.6053 198.261 41.328C197.984 41.0507 197.552 40.912 196.965 40.912C196.475 40.912 196.075 41.0187 195.765 41.232C195.456 41.4453 195.195 41.7173 194.981 42.048L193.941 41.104C194.219 40.6347 194.608 40.2507 195.109 39.952C195.611 39.6427 196.267 39.488 197.077 39.488C198.155 39.488 198.981 39.7387 199.557 40.24C200.133 40.7413 200.421 41.4613 200.421 42.4V46.576H201.301V48H200.325ZM196.805 46.864C197.349 46.864 197.797 46.7467 198.149 46.512C198.501 46.2667 198.677 45.9413 198.677 45.536V44.336H197.205C196 44.336 195.397 44.7093 195.397 45.456V45.744C195.397 46.1173 195.52 46.4 195.765 46.592C196.021 46.7733 196.368 46.864 196.805 46.864ZM205.951 48.192C205.161 48.192 204.5 48.0533 203.967 47.776C203.433 47.4987 202.969 47.1147 202.575 46.624L203.695 45.6C204.004 45.9733 204.345 46.2667 204.719 46.48C205.103 46.6827 205.545 46.784 206.047 46.784C206.559 46.784 206.937 46.688 207.183 46.496C207.439 46.2933 207.567 46.016 207.567 45.664C207.567 45.3973 207.476 45.1733 207.295 44.992C207.124 44.8 206.82 44.6773 206.383 44.624L205.615 44.528C204.761 44.4213 204.089 44.176 203.599 43.792C203.119 43.3973 202.879 42.816 202.879 42.048C202.879 41.6427 202.953 41.2853 203.103 40.976C203.252 40.656 203.46 40.3893 203.727 40.176C204.004 39.952 204.329 39.7813 204.703 39.664C205.087 39.5467 205.508 39.488 205.967 39.488C206.713 39.488 207.321 39.6053 207.791 39.84C208.271 40.0747 208.697 40.4 209.071 40.816L207.999 41.84C207.785 41.584 207.503 41.3653 207.151 41.184C206.809 40.992 206.415 40.896 205.967 40.896C205.487 40.896 205.129 40.992 204.895 41.184C204.671 41.376 204.559 41.6267 204.559 41.936C204.559 42.256 204.66 42.496 204.863 42.656C205.065 42.816 205.391 42.9333 205.839 43.008L206.607 43.104C207.524 43.2427 208.191 43.5147 208.607 43.92C209.033 44.3147 209.247 44.848 209.247 45.52C209.247 45.9253 209.167 46.2933 209.007 46.624C208.857 46.944 208.639 47.2213 208.351 47.456C208.063 47.6907 207.716 47.872 207.311 48C206.905 48.128 206.452 48.192 205.951 48.192ZM215.598 36.16H217.342V41.056H217.422C217.603 40.5547 217.897 40.1707 218.302 39.904C218.718 39.6267 219.203 39.488 219.758 39.488C220.814 39.488 221.63 39.872 222.206 40.64C222.782 41.3973 223.07 42.464 223.07 43.84C223.07 45.216 222.782 46.288 222.206 47.056C221.63 47.8133 220.814 48.192 219.758 48.192C219.203 48.192 218.718 48.0533 218.302 47.776C217.897 47.4987 217.603 47.1147 217.422 46.624H217.342V48H215.598V36.16ZM219.23 46.688C219.838 46.688 220.323 46.496 220.686 46.112C221.049 45.7173 221.23 45.2 221.23 44.56V43.12C221.23 42.48 221.049 41.968 220.686 41.584C220.323 41.1893 219.838 40.992 219.23 40.992C218.697 40.992 218.249 41.1253 217.886 41.392C217.523 41.648 217.342 41.9893 217.342 42.416V45.264C217.342 45.6907 217.523 46.0373 217.886 46.304C218.249 46.56 218.697 46.688 219.23 46.688ZM228.631 48.192C228.033 48.192 227.5 48.0907 227.031 47.888C226.561 47.6853 226.161 47.3973 225.831 47.024C225.5 46.64 225.244 46.1813 225.063 45.648C224.892 45.104 224.807 44.5013 224.807 43.84C224.807 43.1787 224.892 42.5813 225.063 42.048C225.244 41.504 225.5 41.0453 225.831 40.672C226.161 40.288 226.561 39.9947 227.031 39.792C227.5 39.5893 228.033 39.488 228.631 39.488C229.239 39.488 229.772 39.5947 230.231 39.808C230.7 40.0213 231.089 40.32 231.399 40.704C231.708 41.0773 231.937 41.5147 232.087 42.016C232.247 42.5173 232.327 43.056 232.327 43.632V44.288H226.615V44.56C226.615 45.2 226.801 45.728 227.175 46.144C227.559 46.5493 228.103 46.752 228.807 46.752C229.319 46.752 229.751 46.64 230.103 46.416C230.455 46.192 230.753 45.888 230.999 45.504L232.023 46.512C231.713 47.024 231.265 47.4347 230.679 47.744C230.092 48.0427 229.409 48.192 228.631 48.192ZM228.631 40.848C228.332 40.848 228.055 40.9013 227.799 41.008C227.553 41.1147 227.34 41.264 227.159 41.456C226.988 41.648 226.855 41.8773 226.759 42.144C226.663 42.4107 226.615 42.704 226.615 43.024V43.136H230.487V42.976C230.487 42.336 230.321 41.824 229.991 41.44C229.66 41.0453 229.207 40.848 228.631 40.848ZM237.821 48.192C237.224 48.192 236.691 48.0907 236.221 47.888C235.752 47.6853 235.352 47.3973 235.021 47.024C234.691 46.64 234.435 46.1813 234.253 45.648C234.083 45.104 233.997 44.5013 233.997 43.84C233.997 43.1787 234.083 42.5813 234.253 42.048C234.435 41.504 234.691 41.0453 235.021 40.672C235.352 40.288 235.752 39.9947 236.221 39.792C236.691 39.5893 237.224 39.488 237.821 39.488C238.429 39.488 238.963 39.5947 239.421 39.808C239.891 40.0213 240.28 40.32 240.589 40.704C240.899 41.0773 241.128 41.5147 241.277 42.016C241.437 42.5173 241.517 43.056 241.517 43.632V44.288H235.805V44.56C235.805 45.2 235.992 45.728 236.365 46.144C236.749 46.5493 237.293 46.752 237.997 46.752C238.509 46.752 238.941 46.64 239.293 46.416C239.645 46.192 239.944 45.888 240.189 45.504L241.213 46.512C240.904 47.024 240.456 47.4347 239.869 47.744C239.283 48.0427 238.6 48.192 237.821 48.192ZM237.821 40.848C237.523 40.848 237.245 40.9013 236.989 41.008C236.744 41.1147 236.531 41.264 236.349 41.456C236.179 41.648 236.045 41.8773 235.949 42.144C235.853 42.4107 235.805 42.704 235.805 43.024V43.136H239.677V42.976C239.677 42.336 239.512 41.824 239.181 41.44C238.851 41.0453 238.397 40.848 237.821 40.848ZM243.748 48V39.68H245.492V41.056H245.572C245.753 40.608 246.025 40.2347 246.388 39.936C246.761 39.6373 247.268 39.488 247.908 39.488C248.761 39.488 249.423 39.7707 249.892 40.336C250.372 40.8907 250.612 41.6853 250.612 42.72V48H248.868V42.944C248.868 41.6427 248.345 40.992 247.3 40.992C247.076 40.992 246.852 41.024 246.628 41.088C246.415 41.1413 246.223 41.2267 246.052 41.344C245.881 41.4613 245.743 41.6107 245.636 41.792C245.54 41.9733 245.492 42.1867 245.492 42.432V48H243.748ZM260.051 48.192C259.261 48.192 258.6 48.0533 258.067 47.776C257.533 47.4987 257.069 47.1147 256.675 46.624L257.795 45.6C258.104 45.9733 258.445 46.2667 258.819 46.48C259.203 46.6827 259.645 46.784 260.147 46.784C260.659 46.784 261.037 46.688 261.283 46.496C261.539 46.2933 261.667 46.016 261.667 45.664C261.667 45.3973 261.576 45.1733 261.395 44.992C261.224 44.8 260.92 44.6773 260.483 44.624L259.715 44.528C258.861 44.4213 258.189 44.176 257.699 43.792C257.219 43.3973 256.979 42.816 256.979 42.048C256.979 41.6427 257.053 41.2853 257.203 40.976C257.352 40.656 257.56 40.3893 257.827 40.176C258.104 39.952 258.429 39.7813 258.803 39.664C259.187 39.5467 259.608 39.488 260.067 39.488C260.813 39.488 261.421 39.6053 261.891 39.84C262.371 40.0747 262.797 40.4 263.171 40.816L262.099 41.84C261.885 41.584 261.603 41.3653 261.251 41.184C260.909 40.992 260.515 40.896 260.067 40.896C259.587 40.896 259.229 40.992 258.995 41.184C258.771 41.376 258.659 41.6267 258.659 41.936C258.659 42.256 258.76 42.496 258.963 42.656C259.165 42.816 259.491 42.9333 259.939 43.008L260.707 43.104C261.624 43.2427 262.291 43.5147 262.707 43.92C263.133 44.3147 263.347 44.848 263.347 45.52C263.347 45.9253 263.267 46.2933 263.107 46.624C262.957 46.944 262.739 47.2213 262.451 47.456C262.163 47.6907 261.816 47.872 261.411 48C261.005 48.128 260.552 48.192 260.051 48.192ZM270.657 46.624H270.593C270.518 46.8267 270.417 47.024 270.289 47.216C270.171 47.408 270.017 47.5787 269.825 47.728C269.643 47.8667 269.419 47.9787 269.153 48.064C268.897 48.1493 268.598 48.192 268.257 48.192C267.393 48.192 266.721 47.9147 266.241 47.36C265.771 46.8053 265.537 46.0107 265.537 44.976V39.68H267.281V44.752C267.281 46.0427 267.814 46.688 268.881 46.688C269.105 46.688 269.323 46.6613 269.537 46.608C269.75 46.544 269.937 46.4533 270.097 46.336C270.267 46.2187 270.401 46.0693 270.497 45.888C270.603 45.7067 270.657 45.4933 270.657 45.248V39.68H272.401V48H270.657V46.624ZM278.414 48.192C277.817 48.192 277.283 48.0907 276.814 47.888C276.345 47.6853 275.95 47.3973 275.63 47.024C275.31 46.64 275.065 46.1813 274.894 45.648C274.723 45.104 274.638 44.5013 274.638 43.84C274.638 43.1787 274.723 42.5813 274.894 42.048C275.065 41.504 275.31 41.0453 275.63 40.672C275.95 40.288 276.345 39.9947 276.814 39.792C277.283 39.5893 277.817 39.488 278.414 39.488C279.246 39.488 279.929 39.6747 280.462 40.048C280.995 40.4213 281.385 40.9173 281.63 41.536L280.19 42.208C280.073 41.824 279.865 41.52 279.566 41.296C279.278 41.0613 278.894 40.944 278.414 40.944C277.774 40.944 277.289 41.1467 276.958 41.552C276.638 41.9467 276.478 42.464 276.478 43.104V44.592C276.478 45.232 276.638 45.7547 276.958 46.16C277.289 46.5547 277.774 46.752 278.414 46.752C278.926 46.752 279.331 46.6293 279.63 46.384C279.939 46.128 280.185 45.792 280.366 45.376L281.694 46.08C281.417 46.7627 281.001 47.2853 280.446 47.648C279.891 48.0107 279.214 48.192 278.414 48.192ZM286.777 48.192C286.179 48.192 285.646 48.0907 285.177 47.888C284.707 47.6853 284.313 47.3973 283.993 47.024C283.673 46.64 283.427 46.1813 283.257 45.648C283.086 45.104 283.001 44.5013 283.001 43.84C283.001 43.1787 283.086 42.5813 283.257 42.048C283.427 41.504 283.673 41.0453 283.993 40.672C284.313 40.288 284.707 39.9947 285.177 39.792C285.646 39.5893 286.179 39.488 286.777 39.488C287.609 39.488 288.291 39.6747 288.825 40.048C289.358 40.4213 289.747 40.9173 289.993 41.536L288.553 42.208C288.435 41.824 288.227 41.52 287.929 41.296C287.641 41.0613 287.257 40.944 286.777 40.944C286.137 40.944 285.651 41.1467 285.321 41.552C285.001 41.9467 284.841 42.464 284.841 43.104V44.592C284.841 45.232 285.001 45.7547 285.321 46.16C285.651 46.5547 286.137 46.752 286.777 46.752C287.289 46.752 287.694 46.6293 287.993 46.384C288.302 46.128 288.547 45.792 288.729 45.376L290.057 46.08C289.779 46.7627 289.363 47.2853 288.809 47.648C288.254 48.0107 287.577 48.192 286.777 48.192ZM295.187 48.192C294.59 48.192 294.056 48.0907 293.587 47.888C293.118 47.6853 292.718 47.3973 292.387 47.024C292.056 46.64 291.8 46.1813 291.619 45.648C291.448 45.104 291.363 44.5013 291.363 43.84C291.363 43.1787 291.448 42.5813 291.619 42.048C291.8 41.504 292.056 41.0453 292.387 40.672C292.718 40.288 293.118 39.9947 293.587 39.792C294.056 39.5893 294.59 39.488 295.187 39.488C295.795 39.488 296.328 39.5947 296.787 39.808C297.256 40.0213 297.646 40.32 297.955 40.704C298.264 41.0773 298.494 41.5147 298.643 42.016C298.803 42.5173 298.883 43.056 298.883 43.632V44.288H293.171V44.56C293.171 45.2 293.358 45.728 293.731 46.144C294.115 46.5493 294.659 46.752 295.363 46.752C295.875 46.752 296.307 46.64 296.659 46.416C297.011 46.192 297.31 45.888 297.555 45.504L298.579 46.512C298.27 47.024 297.822 47.4347 297.235 47.744C296.648 48.0427 295.966 48.192 295.187 48.192ZM295.187 40.848C294.888 40.848 294.611 40.9013 294.355 41.008C294.11 41.1147 293.896 41.264 293.715 41.456C293.544 41.648 293.411 41.8773 293.315 42.144C293.219 42.4107 293.171 42.704 293.171 43.024V43.136H297.043V42.976C297.043 42.336 296.878 41.824 296.547 41.44C296.216 41.0453 295.763 40.848 295.187 40.848ZM303.754 48.192C302.964 48.192 302.303 48.0533 301.77 47.776C301.236 47.4987 300.772 47.1147 300.378 46.624L301.498 45.6C301.807 45.9733 302.148 46.2667 302.522 46.48C302.906 46.6827 303.348 46.784 303.85 46.784C304.362 46.784 304.74 46.688 304.986 46.496C305.242 46.2933 305.37 46.016 305.37 45.664C305.37 45.3973 305.279 45.1733 305.098 44.992C304.927 44.8 304.623 44.6773 304.186 44.624L303.418 44.528C302.564 44.4213 301.892 44.176 301.402 43.792C300.922 43.3973 300.682 42.816 300.682 42.048C300.682 41.6427 300.756 41.2853 300.906 40.976C301.055 40.656 301.263 40.3893 301.53 40.176C301.807 39.952 302.132 39.7813 302.506 39.664C302.89 39.5467 303.311 39.488 303.77 39.488C304.516 39.488 305.124 39.6053 305.594 39.84C306.074 40.0747 306.5 40.4 306.874 40.816L305.802 41.84C305.588 41.584 305.306 41.3653 304.954 41.184C304.612 40.992 304.218 40.896 303.77 40.896C303.29 40.896 302.932 40.992 302.698 41.184C302.474 41.376 302.362 41.6267 302.362 41.936C302.362 42.256 302.463 42.496 302.666 42.656C302.868 42.816 303.194 42.9333 303.642 43.008L304.41 43.104C305.327 43.2427 305.994 43.5147 306.41 43.92C306.836 44.3147 307.05 44.848 307.05 45.52C307.05 45.9253 306.97 46.2933 306.81 46.624C306.66 46.944 306.442 47.2213 306.154 47.456C305.866 47.6907 305.519 47.872 305.114 48C304.708 48.128 304.255 48.192 303.754 48.192ZM311.866 48.192C311.077 48.192 310.415 48.0533 309.882 47.776C309.349 47.4987 308.885 47.1147 308.49 46.624L309.61 45.6C309.919 45.9733 310.261 46.2667 310.634 46.48C311.018 46.6827 311.461 46.784 311.962 46.784C312.474 46.784 312.853 46.688 313.098 46.496C313.354 46.2933 313.482 46.016 313.482 45.664C313.482 45.3973 313.391 45.1733 313.21 44.992C313.039 44.8 312.735 44.6773 312.298 44.624L311.53 44.528C310.677 44.4213 310.005 44.176 309.514 43.792C309.034 43.3973 308.794 42.816 308.794 42.048C308.794 41.6427 308.869 41.2853 309.018 40.976C309.167 40.656 309.375 40.3893 309.642 40.176C309.919 39.952 310.245 39.7813 310.618 39.664C311.002 39.5467 311.423 39.488 311.882 39.488C312.629 39.488 313.237 39.6053 313.706 39.84C314.186 40.0747 314.613 40.4 314.986 40.816L313.914 41.84C313.701 41.584 313.418 41.3653 313.066 41.184C312.725 40.992 312.33 40.896 311.882 40.896C311.402 40.896 311.045 40.992 310.81 41.184C310.586 41.376 310.474 41.6267 310.474 41.936C310.474 42.256 310.575 42.496 310.778 42.656C310.981 42.816 311.306 42.9333 311.754 43.008L312.522 43.104C313.439 43.2427 314.106 43.5147 314.522 43.92C314.949 44.3147 315.162 44.848 315.162 45.52C315.162 45.9253 315.082 46.2933 314.922 46.624C314.773 46.944 314.554 47.2213 314.266 47.456C313.978 47.6907 313.631 47.872 313.226 48C312.821 48.128 312.367 48.192 311.866 48.192ZM317.802 41.104H316.538V39.68H317.802V38.304C317.802 37.632 317.978 37.1093 318.33 36.736C318.682 36.352 319.21 36.16 319.914 36.16H321.29V37.584H319.546V39.68H321.29V41.104H319.546V48H317.802V41.104ZM328.147 46.624H328.083C328.009 46.8267 327.907 47.024 327.779 47.216C327.662 47.408 327.507 47.5787 327.315 47.728C327.134 47.8667 326.91 47.9787 326.643 48.064C326.387 48.1493 326.089 48.192 325.747 48.192C324.883 48.192 324.211 47.9147 323.731 47.36C323.262 46.8053 323.027 46.0107 323.027 44.976V39.68H324.771V44.752C324.771 46.0427 325.305 46.688 326.371 46.688C326.595 46.688 326.814 46.6613 327.027 46.608C327.241 46.544 327.427 46.4533 327.587 46.336C327.758 46.2187 327.891 46.0693 327.987 45.888C328.094 45.7067 328.147 45.4933 328.147 45.248V39.68H329.891V48H328.147V46.624ZM334.465 48C333.867 48 333.419 47.8507 333.121 47.552C332.833 47.2427 332.689 46.816 332.689 46.272V36.16H334.433V46.576H335.585V48H334.465ZM339.233 48C338.636 48 338.188 47.8507 337.889 47.552C337.601 47.2427 337.457 46.816 337.457 46.272V36.16H339.201V46.576H340.353V48H339.233ZM347.299 39.68H348.979L345.475 49.648C345.379 49.9253 345.267 50.16 345.139 50.352C345.022 50.5547 344.878 50.7147 344.707 50.832C344.547 50.96 344.35 51.0507 344.115 51.104C343.88 51.168 343.603 51.2 343.283 51.2H342.275V49.776H343.683L344.163 48.368L341.139 39.68H342.883L344.547 44.576L345.027 46.384H345.107L345.635 44.576L347.299 39.68ZM354.795 39.68H356.539V41.056H356.619C356.8 40.5547 357.094 40.1707 357.499 39.904C357.915 39.6267 358.4 39.488 358.955 39.488C360.011 39.488 360.827 39.872 361.403 40.64C361.979 41.3973 362.267 42.464 362.267 43.84C362.267 45.216 361.979 46.288 361.403 47.056C360.827 47.8133 360.011 48.192 358.955 48.192C358.4 48.192 357.915 48.0533 357.499 47.776C357.094 47.4987 356.8 47.1147 356.619 46.624H356.539V51.2H354.795V39.68ZM358.427 46.688C359.035 46.688 359.52 46.496 359.883 46.112C360.246 45.7173 360.427 45.2 360.427 44.56V43.12C360.427 42.48 360.246 41.968 359.883 41.584C359.52 41.1893 359.035 40.992 358.427 40.992C357.894 40.992 357.446 41.1253 357.083 41.392C356.72 41.648 356.539 41.9893 356.539 42.416V45.264C356.539 45.6907 356.72 46.0373 357.083 46.304C357.446 46.56 357.894 46.688 358.427 46.688ZM364.564 48V39.68H366.308V41.28H366.388C366.505 40.8533 366.75 40.48 367.124 40.16C367.497 39.84 368.014 39.68 368.676 39.68H369.14V41.36H368.452C367.758 41.36 367.225 41.472 366.852 41.696C366.489 41.92 366.308 42.2507 366.308 42.688V48H364.564ZM374.175 48.192C373.599 48.192 373.071 48.0907 372.591 47.888C372.121 47.6853 371.721 47.3973 371.391 47.024C371.06 46.64 370.804 46.1813 370.623 45.648C370.441 45.104 370.351 44.5013 370.351 43.84C370.351 43.1787 370.441 42.5813 370.623 42.048C370.804 41.504 371.06 41.0453 371.391 40.672C371.721 40.288 372.121 39.9947 372.591 39.792C373.071 39.5893 373.599 39.488 374.175 39.488C374.751 39.488 375.273 39.5893 375.743 39.792C376.223 39.9947 376.628 40.288 376.959 40.672C377.289 41.0453 377.545 41.504 377.727 42.048C377.908 42.5813 377.999 43.1787 377.999 43.84C377.999 44.5013 377.908 45.104 377.727 45.648C377.545 46.1813 377.289 46.64 376.959 47.024C376.628 47.3973 376.223 47.6853 375.743 47.888C375.273 48.0907 374.751 48.192 374.175 48.192ZM374.175 46.752C374.772 46.752 375.252 46.5707 375.615 46.208C375.977 45.8347 376.159 45.28 376.159 44.544V43.136C376.159 42.4 375.977 41.8507 375.615 41.488C375.252 41.1147 374.772 40.928 374.175 40.928C373.577 40.928 373.097 41.1147 372.735 41.488C372.372 41.8507 372.191 42.4 372.191 43.136V44.544C372.191 45.28 372.372 45.8347 372.735 46.208C373.097 46.5707 373.577 46.752 374.175 46.752ZM383.458 48.192C382.86 48.192 382.327 48.0907 381.858 47.888C381.388 47.6853 380.994 47.3973 380.674 47.024C380.354 46.64 380.108 46.1813 379.938 45.648C379.767 45.104 379.682 44.5013 379.682 43.84C379.682 43.1787 379.767 42.5813 379.938 42.048C380.108 41.504 380.354 41.0453 380.674 40.672C380.994 40.288 381.388 39.9947 381.858 39.792C382.327 39.5893 382.86 39.488 383.458 39.488C384.29 39.488 384.972 39.6747 385.506 40.048C386.039 40.4213 386.428 40.9173 386.674 41.536L385.234 42.208C385.116 41.824 384.908 41.52 384.61 41.296C384.322 41.0613 383.938 40.944 383.458 40.944C382.818 40.944 382.332 41.1467 382.002 41.552C381.682 41.9467 381.522 42.464 381.522 43.104V44.592C381.522 45.232 381.682 45.7547 382.002 46.16C382.332 46.5547 382.818 46.752 383.458 46.752C383.97 46.752 384.375 46.6293 384.674 46.384C384.983 46.128 385.228 45.792 385.41 45.376L386.738 46.08C386.46 46.7627 386.044 47.2853 385.49 47.648C384.935 48.0107 384.258 48.192 383.458 48.192ZM391.868 48.192C391.271 48.192 390.738 48.0907 390.268 47.888C389.799 47.6853 389.399 47.3973 389.068 47.024C388.738 46.64 388.482 46.1813 388.3 45.648C388.13 45.104 388.044 44.5013 388.044 43.84C388.044 43.1787 388.13 42.5813 388.3 42.048C388.482 41.504 388.738 41.0453 389.068 40.672C389.399 40.288 389.799 39.9947 390.268 39.792C390.738 39.5893 391.271 39.488 391.868 39.488C392.476 39.488 393.01 39.5947 393.468 39.808C393.938 40.0213 394.327 40.32 394.636 40.704C394.946 41.0773 395.175 41.5147 395.324 42.016C395.484 42.5173 395.564 43.056 395.564 43.632V44.288H389.852V44.56C389.852 45.2 390.039 45.728 390.412 46.144C390.796 46.5493 391.34 46.752 392.044 46.752C392.556 46.752 392.988 46.64 393.34 46.416C393.692 46.192 393.991 45.888 394.236 45.504L395.26 46.512C394.951 47.024 394.503 47.4347 393.916 47.744C393.33 48.0427 392.647 48.192 391.868 48.192ZM391.868 40.848C391.57 40.848 391.292 40.9013 391.036 41.008C390.791 41.1147 390.578 41.264 390.396 41.456C390.226 41.648 390.092 41.8773 389.996 42.144C389.9 42.4107 389.852 42.704 389.852 43.024V43.136H393.724V42.976C393.724 42.336 393.559 41.824 393.228 41.44C392.898 41.0453 392.444 40.848 391.868 40.848ZM400.435 48.192C399.646 48.192 398.984 48.0533 398.451 47.776C397.918 47.4987 397.454 47.1147 397.059 46.624L398.179 45.6C398.488 45.9733 398.83 46.2667 399.203 46.48C399.587 46.6827 400.03 46.784 400.531 46.784C401.043 46.784 401.422 46.688 401.667 46.496C401.923 46.2933 402.051 46.016 402.051 45.664C402.051 45.3973 401.96 45.1733 401.779 44.992C401.608 44.8 401.304 44.6773 400.867 44.624L400.099 44.528C399.246 44.4213 398.574 44.176 398.083 43.792C397.603 43.3973 397.363 42.816 397.363 42.048C397.363 41.6427 397.438 41.2853 397.587 40.976C397.736 40.656 397.944 40.3893 398.211 40.176C398.488 39.952 398.814 39.7813 399.187 39.664C399.571 39.5467 399.992 39.488 400.451 39.488C401.198 39.488 401.806 39.6053 402.275 39.84C402.755 40.0747 403.182 40.4 403.555 40.816L402.483 41.84C402.27 41.584 401.987 41.3653 401.635 41.184C401.294 40.992 400.899 40.896 400.451 40.896C399.971 40.896 399.614 40.992 399.379 41.184C399.155 41.376 399.043 41.6267 399.043 41.936C399.043 42.256 399.144 42.496 399.347 42.656C399.55 42.816 399.875 42.9333 400.323 43.008L401.091 43.104C402.008 43.2427 402.675 43.5147 403.091 43.92C403.518 44.3147 403.731 44.848 403.731 45.52C403.731 45.9253 403.651 46.2933 403.491 46.624C403.342 46.944 403.123 47.2213 402.835 47.456C402.547 47.6907 402.2 47.872 401.795 48C401.39 48.128 400.936 48.192 400.435 48.192ZM408.547 48.192C407.758 48.192 407.097 48.0533 406.563 47.776C406.03 47.4987 405.566 47.1147 405.171 46.624L406.291 45.6C406.601 45.9733 406.942 46.2667 407.315 46.48C407.699 46.6827 408.142 46.784 408.643 46.784C409.155 46.784 409.534 46.688 409.779 46.496C410.035 46.2933 410.163 46.016 410.163 45.664C410.163 45.3973 410.073 45.1733 409.891 44.992C409.721 44.8 409.417 44.6773 408.979 44.624L408.211 44.528C407.358 44.4213 406.686 44.176 406.195 43.792C405.715 43.3973 405.475 42.816 405.475 42.048C405.475 41.6427 405.55 41.2853 405.699 40.976C405.849 40.656 406.057 40.3893 406.323 40.176C406.601 39.952 406.926 39.7813 407.299 39.664C407.683 39.5467 408.105 39.488 408.563 39.488C409.31 39.488 409.918 39.6053 410.387 39.84C410.867 40.0747 411.294 40.4 411.667 40.816L410.595 41.84C410.382 41.584 410.099 41.3653 409.747 41.184C409.406 40.992 409.011 40.896 408.563 40.896C408.083 40.896 407.726 40.992 407.491 41.184C407.267 41.376 407.155 41.6267 407.155 41.936C407.155 42.256 407.257 42.496 407.459 42.656C407.662 42.816 407.987 42.9333 408.435 43.008L409.203 43.104C410.121 43.2427 410.787 43.5147 411.203 43.92C411.63 44.3147 411.843 44.848 411.843 45.52C411.843 45.9253 411.763 46.2933 411.603 46.624C411.454 46.944 411.235 47.2213 410.947 47.456C410.659 47.6907 410.313 47.872 409.907 48C409.502 48.128 409.049 48.192 408.547 48.192ZM417.378 48.192C416.78 48.192 416.247 48.0907 415.778 47.888C415.308 47.6853 414.908 47.3973 414.578 47.024C414.247 46.64 413.991 46.1813 413.81 45.648C413.639 45.104 413.554 44.5013 413.554 43.84C413.554 43.1787 413.639 42.5813 413.81 42.048C413.991 41.504 414.247 41.0453 414.578 40.672C414.908 40.288 415.308 39.9947 415.778 39.792C416.247 39.5893 416.78 39.488 417.378 39.488C417.986 39.488 418.519 39.5947 418.978 39.808C419.447 40.0213 419.836 40.32 420.146 40.704C420.455 41.0773 420.684 41.5147 420.834 42.016C420.994 42.5173 421.074 43.056 421.074 43.632V44.288H415.362V44.56C415.362 45.2 415.548 45.728 415.922 46.144C416.306 46.5493 416.85 46.752 417.554 46.752C418.066 46.752 418.498 46.64 418.85 46.416C419.202 46.192 419.5 45.888 419.746 45.504L420.77 46.512C420.46 47.024 420.012 47.4347 419.426 47.744C418.839 48.0427 418.156 48.192 417.378 48.192ZM417.378 40.848C417.079 40.848 416.802 40.9013 416.546 41.008C416.3 41.1147 416.087 41.264 415.906 41.456C415.735 41.648 415.602 41.8773 415.506 42.144C415.41 42.4107 415.362 42.704 415.362 43.024V43.136H419.234V42.976C419.234 42.336 419.068 41.824 418.738 41.44C418.407 41.0453 417.954 40.848 417.378 40.848ZM428.536 46.624H428.456C428.275 47.1147 427.976 47.4987 427.56 47.776C427.155 48.0533 426.675 48.192 426.12 48.192C425.064 48.192 424.248 47.8133 423.672 47.056C423.096 46.288 422.808 45.216 422.808 43.84C422.808 42.464 423.096 41.3973 423.672 40.64C424.248 39.872 425.064 39.488 426.12 39.488C426.675 39.488 427.155 39.6267 427.56 39.904C427.976 40.1707 428.275 40.5547 428.456 41.056H428.536V36.16H430.28V48H428.536V46.624ZM426.648 46.688C427.182 46.688 427.63 46.56 427.992 46.304C428.355 46.0373 428.536 45.6907 428.536 45.264V42.416C428.536 41.9893 428.355 41.648 427.992 41.392C427.63 41.1253 427.182 40.992 426.648 40.992C426.04 40.992 425.555 41.1893 425.192 41.584C424.83 41.968 424.648 42.48 424.648 43.12V44.56C424.648 45.2 424.83 45.7173 425.192 46.112C425.555 46.496 426.04 46.688 426.648 46.688ZM433.809 44.8L433.249 40.016V36.832H435.137V40.016L434.609 44.8H433.809ZM434.209 48.192C433.804 48.192 433.505 48.096 433.313 47.904C433.132 47.7013 433.041 47.4453 433.041 47.136V46.864C433.041 46.5547 433.132 46.304 433.313 46.112C433.505 45.9093 433.804 45.808 434.209 45.808C434.614 45.808 434.908 45.9093 435.089 46.112C435.281 46.304 435.377 46.5547 435.377 46.864V47.136C435.377 47.4453 435.281 47.7013 435.089 47.904C434.908 48.096 434.614 48.192 434.209 48.192Z" fill="white"/>
<circle cx="41" cy="42" r="21" fill="#00C9B6"/>
<path fill-rule="evenodd" clip-rule="evenodd" d="M38.9101 47.4958L32.7071 41.2929C32.3166 40.9024 31.6834 40.9024 31.2929 41.2929C30.9024 41.6834 30.9024 42.3166 31.2929 42.7071L38.2929 49.7071C38.7168 50.131 39.4159 50.0892 39.7863 49.6178L50.7863 35.6178C51.1275 35.1835 51.0521 34.5549 50.6178 34.2137C50.1835 33.8724 49.5549 33.9479 49.2137 34.3822L38.9101 47.4958Z" fill="white"/>
</g>
<defs>
<linearGradient id="paint0_linear" x1="355.211" y1="27.4461" x2="482.523" y2="126.341" gradientUnits="userSpaceOnUse">
<stop stop-color="#F0F4FD"/>
<stop offset="1" stop-color="#F0F4FD"/>
</linearGradient>
<linearGradient id="paint1_linear" x1="274.211" y1="102.446" x2="401.523" y2="201.341" gradientUnits="userSpaceOnUse">
<stop stop-color="#F0F4FD"/>
<stop offset="1" stop-color="#F0F4FD"/>
</linearGradient>
</defs>
</svg>
