<svg width="32" height="32" viewBox="0 0 32 32" fill="none" xmlns="http://www.w3.org/2000/svg">
<path fill-rule="evenodd" clip-rule="evenodd" d="M6.66602 4.00008C6.66602 3.2637 7.26297 2.66675 7.99935 2.66675H23.9994C24.7357 2.66675 25.3327 3.2637 25.3327 4.00008V28.0001H18V23.3334C18 22.9653 17.7015 22.6668 17.3333 22.6668H14.6667C14.2985 22.6668 14 22.9653 14 23.3334V28.0001H6.66602V4.00008ZM10.6664 6.00014C10.6664 5.63195 10.9649 5.33347 11.3331 5.33347H13.9997C14.3679 5.33347 14.6664 5.63195 14.6664 6.00014V8.66681C14.6664 9.035 14.3679 9.33347 13.9997 9.33347H11.3331C10.9649 9.33347 10.6664 9.035 10.6664 8.66681V6.00014ZM18.0003 5.33347C17.6321 5.33347 17.3336 5.63195 17.3336 6.00014V8.66681C17.3336 9.035 17.6321 9.33347 18.0003 9.33347H20.6669C21.0351 9.33347 21.3336 9.035 21.3336 8.66681V6.00014C21.3336 5.63195 21.0351 5.33347 20.6669 5.33347H18.0003ZM10.6664 11.3334C10.6664 10.9653 10.9649 10.6668 11.3331 10.6668H13.9997C14.3679 10.6668 14.6664 10.9653 14.6664 11.3334V14.0001C14.6664 14.3683 14.3679 14.6668 13.9997 14.6668H11.3331C10.9649 14.6668 10.6664 14.3683 10.6664 14.0001V11.3334ZM11.3331 16.0001C10.9649 16.0001 10.6664 16.2986 10.6664 16.6668V19.3335C10.6664 19.7016 10.9649 20.0001 11.3331 20.0001H13.9997C14.3679 20.0001 14.6664 19.7016 14.6664 19.3335V16.6668C14.6664 16.2986 14.3679 16.0001 13.9997 16.0001H11.3331ZM17.3336 16.6668C17.3336 16.2986 17.6321 16.0001 18.0003 16.0001H20.6669C21.0351 16.0001 21.3336 16.2986 21.3336 16.6668V19.3335C21.3336 19.7016 21.0351 20.0001 20.6669 20.0001H18.0003C17.6321 20.0001 17.3336 19.7016 17.3336 19.3335V16.6668Z" fill="url(#paint0_linear)"/>
<rect x="17.334" y="10.6667" width="4" height="4" rx="0.666667" fill="white"/>
<path d="M4 30.6508C4 29.1868 5.18679 28 6.65076 28H25.3492C26.8132 28 28 29.1868 28 30.6508C28 30.6595 27.9929 30.6667 27.9841 30.6667H4.01591C4.00712 30.6667 4 30.6595 4 30.6508Z" fill="url(#paint1_linear)"/>
<defs>
<linearGradient id="paint0_linear" x1="27.9355" y1="27.9858" x2="-4.30884" y2="13.4368" gradientUnits="userSpaceOnUse">
<stop stop-color="#CD7BFE"/>
<stop offset="1" stop-color="#FFE9A5"/>
</linearGradient>
<linearGradient id="paint1_linear" x1="31.3464" y1="30.6652" x2="29.756" y2="21.9" gradientUnits="userSpaceOnUse">
<stop stop-color="#E9C5FF"/>
<stop offset="1" stop-color="#FFF8E0"/>
</linearGradient>
</defs>
</svg>
